<?xml version="1.0" encoding="utf-8"?>
<!-- Generator: Adobe Illustrator 24.0.1, SVG Export Plug-In . SVG Version: 6.00 Build 0)  -->
<svg version="1.1" id="Layer_1" xmlns="http://www.w3.org/2000/svg" xmlns:xlink="http://www.w3.org/1999/xlink" x="0px" y="0px"
	 viewBox="0 0 510.24 141.73" style="enable-background:new 0 0 510.24 141.73;" xml:space="preserve">
<style type="text/css">
	.st0{fill:#EE2A24;}
	.st1{fill:#231F20;}
	.st2{fill:#FFFFFF;}
	.st3{fill:#5EC8DA;}
</style>
<g>
	<g>
		<path class="st1" d="M440.86,124.96l-8.57-7.73c-30.42-27.93-50.5-46.05-50.5-68.63c-0.31-17.74,13.82-32.37,31.55-32.68
			c0.31-0.01,0.62-0.01,0.93,0c10.26,0.05,19.98,4.62,26.58,12.48c6.6-7.86,16.32-12.43,26.58-12.48
			c17.74-0.2,32.29,14.01,32.49,31.75c0,0.31,0,0.62,0,0.93c0,22.58-20.08,40.71-50.5,68.63L440.86,124.96z"/>
	</g>
	<g>
		<g>
			<path class="st2" d="M446.66,87.38c1.56,1.53,2.34,3.51,2.34,5.92c0,2.48-0.78,4.5-2.34,6.06c-1.56,1.56-3.58,2.34-6.06,2.34
				c-2.42,0-4.41-0.78-5.97-2.34c-1.56-1.56-2.34-3.58-2.34-6.06c0-2.42,0.78-4.39,2.34-5.92c1.56-1.53,3.55-2.3,5.97-2.3
				C443.07,85.08,445.09,85.84,446.66,87.38z M432.46,39.18h16.98v16.09l-3.09,23.61h-10.7l-3.18-23.61V39.18z"/>
		</g>
	</g>
	<g>
		<path class="st1" d="M109.71,66.55c3.25,1.89,5.77,4.57,7.54,8.04c1.78,3.48,2.66,7.51,2.66,12.09v38.28H97.51V93.12
			c0-2.96-0.76-5.33-2.27-7.1c-1.52-1.78-3.53-2.66-6.05-2.66c-2.88,0.07-5.18,1.18-6.88,3.33c-1.7,2.15-2.55,4.96-2.55,8.43v29.85
			H57.35V93.12c0-2.96-0.76-5.33-2.27-7.1c-1.52-1.78-3.53-2.66-6.05-2.66c-2.88,0.07-5.2,1.18-6.93,3.33
			c-1.74,2.15-2.61,4.96-2.61,8.43v29.85H17.07V64.61h22.41v9.21c2.07-3.25,4.7-5.75,7.88-7.49c3.18-1.74,6.8-2.61,10.87-2.61
			c4.66,0,8.73,1.15,12.2,3.44c3.48,2.29,6.03,5.51,7.66,9.65c1.92-4.22,4.64-7.45,8.15-9.71c3.51-2.26,7.6-3.38,12.26-3.38
			C102.72,63.72,106.46,64.66,109.71,66.55z"/>
		<path class="st1" d="M180.11,69.54c4.77,3.88,7.16,9.3,7.16,16.25v39.17H165.3v-6.66c-1.85,2.44-4.27,4.33-7.27,5.66
			c-3,1.33-6.45,2-10.37,2c-6.36,0-11.36-1.72-14.98-5.16c-3.63-3.44-5.44-8.04-5.44-13.81c0-5.84,1.98-10.34,5.94-13.48
			c3.96-3.14,9.75-4.75,17.36-4.83h14.76v-0.22c0-2.51-0.89-4.47-2.66-5.88c-1.78-1.4-4.37-2.11-7.77-2.11
			c-2.44,0-5.27,0.37-8.49,1.11c-3.22,0.74-6.45,1.81-9.71,3.22l-5.55-14.87c10.21-4.14,19.9-6.21,29.07-6.21
			C168.7,63.72,175.34,65.66,180.11,69.54z M161.31,109.65c1.85-1.11,3.18-2.63,3.99-4.55v-5.44h-10.21c-4.51,0-6.77,1.89-6.77,5.66
			c0,1.92,0.59,3.4,1.78,4.44c1.18,1.04,2.85,1.55,4.99,1.55C157.39,111.32,159.46,110.76,161.31,109.65z"/>
		<path class="st1" d="M240.42,122.08c-2.15,1.18-4.75,2.13-7.82,2.83c-3.07,0.7-6.16,1.05-9.26,1.05c-6.44,0-11.58-1.78-15.42-5.33
			c-3.85-3.55-5.77-8.39-5.77-14.54V82.03h-8.32V67.71h8.32V50.96h22.3v16.75h14.87v14.31h-14.87v20.64c0,1.92,0.44,3.37,1.33,4.33
			c0.89,0.96,2.14,1.44,3.77,1.44c1.4,0,3.7-0.59,6.88-1.78L240.42,122.08z"/>
		<path class="st1" d="M282.41,83.58c-1.66-1.04-3.53-1.55-5.6-1.55c-2.96,0-5.36,1.18-7.21,3.55c-1.85,2.37-2.77,5.48-2.77,9.32
			c0,3.92,0.91,7.08,2.72,9.49c1.81,2.4,4.23,3.61,7.27,3.61c4.51,0,7.69-2.22,9.54-6.66l17.42,8.76c-2.29,4.96-5.9,8.8-10.82,11.54
			c-4.92,2.74-10.71,4.11-17.36,4.11c-6.29,0-11.8-1.28-16.53-3.83c-4.73-2.55-8.4-6.14-10.98-10.76c-2.59-4.62-3.88-10-3.88-16.14
			c0-6.21,1.31-11.67,3.94-16.37c2.62-4.7,6.32-8.34,11.1-10.93c4.77-2.59,10.3-3.88,16.59-3.88c6.29,0,11.85,1.37,16.7,4.11
			c4.84,2.74,8.56,6.62,11.15,11.65l-17.2,8.43C285.42,86.1,284.07,84.62,282.41,83.58z"/>
		<path class="st1" d="M369.12,69.99c3.99,4.18,5.99,9.75,5.99,16.7v38.28H352.7V93.12c0-3.03-0.78-5.42-2.33-7.16
			c-1.55-1.74-3.66-2.61-6.32-2.61c-3.03,0.07-5.44,1.18-7.21,3.33c-1.78,2.15-2.66,4.96-2.66,8.43v29.85h-22.41V42.64h22.41v31.29
			c2.14-3.33,4.83-5.86,8.04-7.6c3.22-1.74,6.93-2.61,11.15-2.61C359.87,63.72,365.13,65.81,369.12,69.99z"/>
	</g>
	<g>
		<path class="st1" d="M16.44,16.26h14.42l6.89,24.4l6.61-24.4h13.36l6.82,24.4l6.75-24.4h13.79L71.16,54.52h-14l-6.33-21.94
			l-6.47,21.94h-14L16.44,16.26z"/>
		<path class="st1" d="M119.55,21.36c3.52,3.73,5.27,8.83,5.27,15.3c0,0.98-0.02,1.71-0.07,2.18H99.01
			c0.56,1.83,1.49,3.24,2.78,4.22c1.29,0.98,2.85,1.48,4.68,1.48c2.95,0,5.77-1.22,8.44-3.66l7.38,7.24
			c-2.02,2.25-4.47,3.96-7.35,5.13c-2.88,1.17-6.11,1.76-9.67,1.76c-4.22,0-7.88-0.81-10.97-2.43s-5.47-3.89-7.14-6.82
			c-1.67-2.93-2.5-6.34-2.5-10.23c0-3.94,0.84-7.4,2.53-10.37c1.69-2.98,4.06-5.29,7.1-6.93c3.05-1.64,6.56-2.46,10.55-2.46
			C111.13,15.77,116.03,17.63,119.55,21.36z M109.21,27.23c-1.08-1.22-2.49-1.83-4.22-1.83c-1.64,0-3,0.59-4.08,1.76
			c-1.08,1.17-1.81,2.74-2.18,4.71h12.03C110.81,30,110.29,28.45,109.21,27.23z"/>
	</g>
</g>
</svg>
