<?xml version="1.0" encoding="utf-8"?>
<!-- Generator: Adobe Illustrator 24.0.1, SVG Export Plug-In . SVG Version: 6.00 Build 0)  -->
<svg version="1.1" id="Layer_1" xmlns="http://www.w3.org/2000/svg" xmlns:xlink="http://www.w3.org/1999/xlink" x="0px" y="0px"
	 viewBox="0 0 425.2 198.43" style="enable-background:new 0 0 425.2 198.43;" xml:space="preserve">
<style type="text/css">
	.st0{fill:#EE2A24;}
	.st1{fill:#231F20;}
	.st2{fill:#FFFFFF;}
	.st3{fill:#5EC8DA;}
</style>
<g>
	<g>
		<path class="st0" d="M211.38,175.93l-12.05-10.87c-42.8-39.3-71.06-64.8-71.06-96.57c-0.44-24.96,19.44-45.55,44.4-45.98
			c0.44-0.01,0.87-0.01,1.31,0c14.44,0.08,28.12,6.5,37.4,17.56c9.28-11.06,22.96-17.48,37.4-17.56
			c24.96-0.29,45.43,19.72,45.72,44.68c0.01,0.44,0,0.87,0,1.31c0,31.77-28.26,57.28-71.06,96.57L211.38,175.93z"/>
	</g>
	<g>
		<path class="st1" d="M110.52,111.97c3.25,1.89,5.77,4.57,7.54,8.04c1.78,3.48,2.66,7.51,2.66,12.09v38.28H98.32v-31.84
			c0-2.96-0.76-5.33-2.27-7.1c-1.52-1.78-3.53-2.66-6.05-2.66c-2.88,0.08-5.18,1.18-6.88,3.33c-1.7,2.15-2.55,4.96-2.55,8.43v29.85
			H58.15v-31.84c0-2.96-0.76-5.33-2.27-7.1c-1.52-1.78-3.53-2.66-6.05-2.66c-2.88,0.08-5.2,1.18-6.93,3.33
			c-1.74,2.15-2.61,4.96-2.61,8.43v29.85H17.88v-60.36h22.41v9.21c2.07-3.25,4.7-5.75,7.88-7.49c3.18-1.74,6.8-2.61,10.87-2.61
			c4.66,0,8.73,1.15,12.21,3.44c3.48,2.29,6.03,5.51,7.66,9.65c1.92-4.22,4.64-7.45,8.16-9.71c3.51-2.26,7.6-3.38,12.26-3.38
			C103.53,109.14,107.27,110.08,110.52,111.97z"/>
		<path class="st1" d="M180.92,114.96c4.77,3.88,7.16,9.3,7.16,16.25v39.17h-21.97v-6.66c-1.85,2.44-4.27,4.33-7.27,5.66
			c-3,1.33-6.45,2-10.37,2c-6.36,0-11.36-1.72-14.98-5.16c-3.63-3.44-5.44-8.04-5.44-13.81c0-5.84,1.98-10.34,5.94-13.48
			c3.96-3.14,9.75-4.75,17.36-4.83h14.76v-0.22c0-2.51-0.89-4.47-2.66-5.88c-1.78-1.4-4.37-2.11-7.77-2.11
			c-2.44,0-5.27,0.37-8.49,1.11c-3.22,0.74-6.46,1.81-9.71,3.22l-5.55-14.87c10.21-4.14,19.9-6.21,29.07-6.21
			C169.51,109.14,176.15,111.08,180.92,114.96z M162.12,155.07c1.85-1.11,3.18-2.63,3.99-4.55v-5.44H155.9
			c-4.51,0-6.77,1.89-6.77,5.66c0,1.92,0.59,3.4,1.78,4.44c1.18,1.04,2.85,1.55,4.99,1.55
			C158.19,156.74,160.27,156.18,162.12,155.07z"/>
		<path class="st1" d="M241.22,167.5c-2.15,1.18-4.75,2.13-7.82,2.83c-3.07,0.7-6.16,1.05-9.26,1.05c-6.43,0-11.58-1.78-15.42-5.33
			c-3.85-3.55-5.77-8.39-5.77-14.54v-24.08h-8.32v-14.31h8.32V96.38h22.3v16.75h14.87v14.31h-14.87v20.64
			c0,1.92,0.44,3.37,1.33,4.33c0.89,0.96,2.14,1.44,3.77,1.44c1.4,0,3.7-0.59,6.88-1.78L241.22,167.5z"/>
		<path class="st1" d="M283.22,129c-1.66-1.04-3.53-1.55-5.6-1.55c-2.96,0-5.36,1.18-7.21,3.55c-1.85,2.37-2.77,5.47-2.77,9.32
			c0,3.92,0.91,7.08,2.72,9.49c1.81,2.41,4.23,3.61,7.27,3.61c4.51,0,7.69-2.22,9.54-6.66l17.42,8.77
			c-2.29,4.96-5.9,8.8-10.82,11.54c-4.92,2.74-10.71,4.1-17.36,4.1c-6.29,0-11.8-1.28-16.53-3.83c-4.73-2.55-8.4-6.14-10.98-10.76
			c-2.59-4.62-3.88-10-3.88-16.14c0-6.21,1.31-11.67,3.94-16.37c2.63-4.7,6.32-8.34,11.1-10.93c4.77-2.59,10.3-3.88,16.59-3.88
			c6.29,0,11.85,1.37,16.7,4.11c4.84,2.74,8.56,6.62,11.15,11.65l-17.2,8.43C286.23,131.52,284.88,130.04,283.22,129z"/>
		<path class="st1" d="M369.93,115.41c3.99,4.18,5.99,9.75,5.99,16.7v38.28h-22.41v-31.84c0-3.03-0.78-5.42-2.33-7.16
			c-1.55-1.74-3.66-2.61-6.32-2.61c-3.03,0.08-5.44,1.18-7.21,3.33c-1.78,2.15-2.66,4.96-2.66,8.43v29.85h-22.41V88.06h22.41v31.29
			c2.14-3.33,4.83-5.86,8.04-7.6c3.22-1.74,6.93-2.61,11.15-2.61C360.68,109.14,365.93,111.23,369.93,115.41z"/>
		<path class="st1" d="M403.82,153.3c1.96,1.92,2.94,4.4,2.94,7.43c0,3.11-0.98,5.64-2.94,7.6c-1.96,1.96-4.49,2.94-7.6,2.94
			c-3.03,0-5.53-0.98-7.49-2.94c-1.96-1.96-2.94-4.49-2.94-7.6c0-3.03,0.98-5.51,2.94-7.43c1.96-1.92,4.46-2.88,7.49-2.88
			C399.33,150.41,401.86,151.38,403.82,153.3z M386.02,92.83h21.3v20.19l-3.88,29.62h-13.42l-3.99-29.62V92.83z"/>
	</g>
	<g>
		<path class="st2" d="M156.52,51.25h14.42l6.89,24.41l6.61-24.41h13.36l6.82,24.41l6.75-24.41h13.79l-13.93,38.26h-14l-6.33-21.94
			l-6.47,21.94h-14L156.52,51.25z"/>
		<path class="st2" d="M259.62,56.35c3.52,3.73,5.28,8.83,5.28,15.3c0,0.98-0.02,1.71-0.07,2.18h-25.74
			c0.56,1.83,1.49,3.24,2.78,4.22c1.29,0.98,2.85,1.48,4.68,1.48c2.95,0,5.77-1.22,8.44-3.66l7.38,7.24
			c-2.02,2.25-4.47,3.96-7.35,5.13S248.91,90,245.35,90c-4.22,0-7.88-0.81-10.97-2.43c-3.09-1.62-5.47-3.89-7.14-6.82
			c-1.67-2.93-2.5-6.34-2.5-10.23c0-3.94,0.84-7.4,2.53-10.37c1.69-2.98,4.06-5.29,7.1-6.93c3.05-1.64,6.56-2.46,10.55-2.46
			C251.21,50.76,256.11,52.62,259.62,56.35z M249.29,62.22c-1.08-1.22-2.49-1.83-4.22-1.83c-1.64,0-3,0.59-4.08,1.76
			c-1.08,1.17-1.81,2.74-2.18,4.71h12.03C250.88,64.99,250.36,63.44,249.29,62.22z"/>
	</g>
</g>
</svg>
