<?xml version="1.0" encoding="utf-8"?>
<!-- Generator: Adobe Illustrator 24.0.1, SVG Export Plug-In . SVG Version: 6.00 Build 0)  -->
<svg version="1.1" id="Layer_1" xmlns="http://www.w3.org/2000/svg" xmlns:xlink="http://www.w3.org/1999/xlink" x="0px" y="0px"
	 viewBox="0 0 269.29 240.94" style="enable-background:new 0 0 269.29 240.94;" xml:space="preserve">
<style type="text/css">
	.st0{fill:#A32322;}
	.st1{fill:#FFFFFF;}
	.st2{fill:#5EC8DA;}
</style>
<g>
	<path class="st2" d="M134.65,237.43l-18.37-16.57C51.02,160.95,7.95,122.06,7.95,73.63C7.28,35.58,37.58,4.2,75.63,3.53
		c0.67-0.01,1.33-0.01,2-0.01c22.01,0.12,42.86,9.91,57.01,26.77c14.15-16.86,35-26.65,57.01-26.77
		c38.05-0.44,69.25,30.06,69.69,68.11c0.01,0.67,0.01,1.33-0.01,2c0,48.44-43.08,87.32-108.32,147.22L134.65,237.43z"/>
	<g>
		<path class="st1" d="M147.07,156.8c3.35,3.29,5.03,7.53,5.03,12.71c0,5.31-1.68,9.64-5.03,12.99c-3.35,3.35-7.68,5.03-12.99,5.03
			c-5.19,0-9.45-1.67-12.8-5.03c-3.35-3.35-5.03-7.68-5.03-12.99c0-5.18,1.67-9.42,5.03-12.71c3.35-3.29,7.62-4.93,12.8-4.93
			C139.39,151.86,143.72,153.51,147.07,156.8z M116.63,53.42h36.42v34.52l-6.64,50.65h-22.95l-6.83-50.65V53.42z"/>
	</g>
</g>
</svg>
