<?xml version="1.0" encoding="utf-8"?>
<!-- Generator: Adobe Illustrator 24.0.1, SVG Export Plug-In . SVG Version: 6.00 Build 0)  -->
<svg version="1.1" id="Layer_1" xmlns="http://www.w3.org/2000/svg" xmlns:xlink="http://www.w3.org/1999/xlink" x="0px" y="0px"
	 viewBox="0 0 368.5 283.46" style="enable-background:new 0 0 368.5 283.46;" xml:space="preserve">
<style type="text/css">
	.st0{fill:#F3F3F3;}
	.st1{fill:#403E56;}
	.st2{fill:#302E41;}
	.st3{fill:#F9B7B9;}
	.st4{fill:#585B8A;}
	.st5{opacity:0.1;fill:#010101;enable-background:new    ;}
	.st6{fill:#ED2224;}
	.st7{fill:#A0626B;}
	.st8{fill:none;stroke:#403E56;stroke-width:2;stroke-miterlimit:10;}
	.st9{fill:#FFFFFF;}
</style>
<g>
	<path class="st0" d="M191.06,8.35c-16.76,4.35-31.55,15.98-46.25,31.23c-21.72,23.28-11.4,11.85-32.86,37.88
		c-17.26,20.62-36.11,42.42-59.12,60.44c-58.58,45.88,61.88,129.55,138.22,129.55s138.22-58,138.22-129.55S264.62-10.76,191.06,8.35
		z"/>
	<ellipse class="st1" cx="298.23" cy="239.61" rx="47.53" ry="6.17"/>
	<ellipse class="st1" cx="130.06" cy="267.25" rx="47.53" ry="6.17"/>
	<path class="st2" d="M300.85,218.13c0,0,2.55,8.8,4.26,11.07c1.7,2.27,3.12,5.96,2.27,6.53c-0.85,0.57-2.55,7.38-0.28,7.66
		c2.27,0.28,7.38-7.38,7.66-9.93c0.28-2.55,1.42-11.63,1.42-11.63s1.99-7.95-1.14-8.51c-3.12-0.57-7.95-0.85-7.95-0.85
		L300.85,218.13z"/>
	<path class="st2" d="M288.93,227.5c0,0-3.69,9.65-4.54,10.22c-0.85,0.57-3.97,5.68,2.27,5.68s9.65-1.7,9.65-1.7l1.99-2.27
		c0,0,0-5.96-0.57-6.81c-0.57-0.85,0-5.11,0-5.11H288.93z"/>
	<path class="st2" d="M263.68,139.24c0,0-4.54,30.65-0.57,40.58c3.97,9.93,7.95,12.77,7.95,12.77l30.08,28.09
		c0,0,9.36-4.82,8.51-7.95c0,0-1.99-1.14-2.27-1.99c-0.28-0.85-3.97-1.14-3.97-1.14s-1.7-1.99-1.7-3.12s-14.76-21.28-19.58-22.7
		c0,0-2.55-3.12-2.27-3.69c0.28-0.57-0.85-2.55-0.85-2.55l2.84-11.07l17.88-2.84c0,0,7.38-26.11,1.14-28.09
		C294.61,133.57,263.68,139.24,263.68,139.24z"/>
	<path class="st2" d="M299.15,159.11l0.57,4.54c0,0,0,11.92-0.57,13.05c-0.57,1.14-0.85,2.84,0,3.97c0.85,1.14,2.27,3.97,1.7,5.11
		c-0.57,1.14,1.14,33.2-1.14,35.47c-2.27,2.27-1.42,5.11-1.14,5.39s-0.28,1.42-0.28,1.42s-11.63,1.99-10.78,0
		c0.85-1.99,0.85-3.12,1.42-3.69c0.57-0.57,0-1.42,0-1.42s0.85-9.08,0-9.65s-3.41-27.81-3.41-28.09s-0.85-0.85-0.85-1.99
		c0-1.14,0-4.82-1.42-5.39s-1.14-14.47-1.14-14.47L299.15,159.11z"/>
	<path class="st3" d="M279,57.8c0,0,1.14,8.51,4.54,10.22c3.41,1.7,5.68,2.55,5.68,2.55l-2.84,9.93l-1.14,8.51h-13.05l-7.09-5.68
		l2.27-9.36l1.14-1.7c0,0,1.42-6.24,0.28-8.23C267.65,62.06,279,57.8,279,57.8z"/>
	<path class="st4" d="M273.33,78.52l1.99,3.69c0,0,1.42-5.11,3.41-5.96c1.99-0.85,6.81-2.27,6.81-3.41c0-1.14-0.28-3.97,0.85-3.97
		c1.14,0,12.2,3.41,13.9,4.54s1.99,2.27,1.99,2.27l-3.12,32.63c0,0,4.54,15.32,3.12,21.28c-1.42,5.96-2.55,6.81-5.96,7.66
		c-3.41,0.85-1.42-1.99-11.35,0.85c-9.93,2.84-16.17,1.99-18.45,1.99s-3.69,1.14-4.26,1.42c-0.57,0.28-0.28-1.42,1.7-3.97
		c1.99-2.55,1.14-6.81,1.14-6.81s-2.27-7.38-0.85-10.22c1.42-2.84,3.41-6.53,1.7-7.66s-3.97-9.65-3.97-9.65l-6.24-22.13l12.77-8.8
		c0,0-0.57,3.97,1.42,4.82C271.91,77.95,273.33,78.52,273.33,78.52z"/>
	<path class="st4" d="M257.44,80.79h-1.7c0,0-2.84,4.82-2.84,8.23s1.42,22.7,1.42,22.7l8.23,8.51l1.99-6.53l0.57-14.47L257.44,80.79
		z"/>
	<path class="st4" d="M261.98,110.87c0,0-9.36-2.55-9.08,1.42s1.7,8.8,6.24,9.93c4.54,1.14,5.96-5.11,5.96-5.11
		S265.67,111.43,261.98,110.87z"/>
	<path class="st3" d="M297.16,123.92c0,0-0.57,13.05-3.97,14.47l8.23,1.99c0,0,3.97-13.62,3.41-14.19
		C304.26,125.62,297.16,123.92,297.16,123.92z"/>
	<path class="st2" d="M248.49,97.35l4.87-2.13c0.38-0.17,0.82,0.01,0.99,0.39l5.42,12.4c0.2,0.46-0.01,1-0.47,1.2l0,0l-4.57,2
		c-0.46,0.2-1-0.01-1.2-0.47c0,0,0,0,0,0l-5.42-12.4C247.94,97.96,248.11,97.51,248.49,97.35z"/>
	<path class="st5" d="M248.49,97.35l4.87-2.13c0.38-0.17,0.82,0.01,0.99,0.39l5.42,12.4c0.2,0.46-0.01,1-0.47,1.2l0,0l-4.57,2
		c-0.46,0.2-1-0.01-1.2-0.47c0,0,0,0,0,0l-5.42-12.4C247.94,97.96,248.11,97.51,248.49,97.35z"/>
	<path class="st2" d="M248.77,97.98l4.25-1.86c0.38-0.17,0.82,0.01,0.99,0.39l5.14,11.77c0.2,0.46-0.01,1-0.47,1.2l0,0l-3.94,1.72
		c-0.46,0.2-1-0.01-1.2-0.47c0,0,0,0,0,0l-5.14-11.77C248.22,98.59,248.39,98.15,248.77,97.98L248.77,97.98z"/>
	
		<ellipse transform="matrix(0.9164 -0.4003 0.4003 0.9164 -19.6436 109.436)" class="st0" cx="252.12" cy="101.74" rx="1.36" ry="1.38"/>
	<path class="st5" d="M299.29,79.51l1.84-2.7c0,0,6.81,10.5,6.24,17.59c-0.57,7.09-1.14,7.38-1.14,8.51s-1.42,1.14,0,2.55
		c1.42,1.42,3.41,3.41,2.27,4.54c-1.14,1.14-1.99,1.14-1.7,2.55c0.18,1.03,0.28,2.07,0.28,3.12c0,0-2.41,4.68-3.26,4.68
		s-8.94,7.52-8.94,6.67s0.85-6.81,0.85-7.66c0-0.85,0.28-3.69,0.85-4.54c0.57-0.85,0.57-0.57,0-1.42c-0.57-0.85-0.57,0-0.57-0.85
		c0-0.85,0.28-1.99-0.57-2.27s-1.7,0-1.14-1.42c0.57-1.42,0-2.55-0.28-2.55s-1.7-0.28-0.85-1.14s-1.7-17.31-1.7-17.31
		S291.91,83.77,299.29,79.51z"/>
	<path class="st4" d="M297.73,73.41l4.82,2.27c0,0,6.81,10.5,6.24,17.59c-0.57,7.09-1.14,7.38-1.14,8.51c0,1.14-1.42,1.14,0,2.55
		c1.42,1.42,3.41,3.41,2.27,4.54c-1.14,1.14-1.99,1.14-1.7,2.55c0.18,1.03,0.28,2.07,0.28,3.12c0,0-2.55,13.62-3.41,13.62
		s-8.8-1.42-8.8-2.27s0.85-6.81,0.85-7.66c0-0.85,0.28-3.69,0.85-4.54c0.57-0.85,0.57-0.57,0-1.42c-0.57-0.85-0.57,0-0.57-0.85
		c0-0.85,0.28-1.99-0.57-2.27c-0.85-0.28-1.7,0-1.14-1.42c0.57-1.42,0-2.55-0.28-2.55c-0.28,0-1.7-0.28-0.85-1.14
		c0.85-0.85-1.7-17.31-1.7-17.31S290.35,77.67,297.73,73.41z"/>
	<path class="st3" d="M254.67,112.89c-0.54,0.14-1.12-0.11-1.37-0.62c-1.3-2.61-4.84-10.25-1.54-10.49
		c3.04-0.22,5.75,5.71,6.85,8.51c0.27,0.69-0.07,1.48-0.76,1.75c-0.05,0.02-0.1,0.04-0.15,0.05L254.67,112.89z"/>
	<circle class="st3" cx="271.06" cy="55.25" r="10.5"/>
	<path class="st2" d="M267.2,49.2c-1.31,0.45-2.66,0.77-4.04,0.95c-1.03,0.16-2.24,0.24-2.97-0.51c-0.71-0.74-0.6-1.97-0.11-2.88
		c0.49-0.9,1.27-1.61,1.85-2.46c0.92-1.33,1.46-3.09,2.93-3.76c0.61-0.23,1.26-0.35,1.91-0.36c3.82-0.24,7.79-0.46,11.32,1
		c1.33,0.51,2.5,1.34,3.42,2.43c0.6,0.8,1.06,1.7,1.37,2.65c1.92,5.7,0.74,11.98-3.11,16.59c-1.29-1.16-0.73-3.84-2.36-4.43
		c-0.53-0.19-1.14-0.06-1.69-0.21c-1.72-0.48-1.63-3.14-3.07-4.21c-0.31-0.17-0.59-0.4-0.82-0.67c-0.13-0.26-0.18-0.55-0.16-0.85
		c-0.01-1,0.46-3.53-0.49-4.21C270.22,47.59,268.13,48.86,267.2,49.2z"/>
	<polygon class="st6" points="112.92,24.82 251.97,24.82 251.97,70.23 245.71,70.23 245.71,87.02 228.93,70.23 112.92,70.23 	"/>
	<path class="st6" d="M193.38,173.41l-5.19-4.68c-18.43-16.92-30.59-27.9-30.59-41.58c-0.19-10.75,8.37-19.61,19.12-19.8
		c0.19,0,0.38,0,0.56,0c6.22,0.03,12.11,2.8,16.1,7.56c4-4.76,9.89-7.53,16.1-7.56c10.75-0.12,19.56,8.49,19.68,19.24
		c0,0.19,0,0.38,0,0.56c0,13.68-12.17,24.66-30.59,41.58L193.38,173.41z"/>
	<polygon class="st6" points="0.92,136.22 84.18,112.58 96.59,156.27 90.58,157.97 95.16,174.12 74.43,162.56 13.33,179.91 	"/>
	<path class="st7" d="M96.51,109.76c0,0-2.81,8.44-1.25,10.32s-9.38-5.63-9.38-5.63l5.94-6.88L96.51,109.76z"/>
	<circle class="st2" cx="90.09" cy="95.71" r="14.04"/>
	<polygon class="st7" points="144.66,204.82 137.47,210.45 133.4,203.88 140.6,198.88 	"/>
	<path class="st2" d="M134.5,247.19l1.88,9.07l5.32,7.19c0,0,14.38,4.38,4.69,6.57c-9.69,2.19-11.88-1.56-11.88-1.56l-6.88-5.94
		v8.13h-4.38l-0.94-11.57c0,0-0.63-3.44,2.19-7.19l0.63-5.63L134.5,247.19z"/>
	<path class="st7" d="M98.23,134.93l2.5,14.38c0,0,26.58-2.81,28.46,2.5c1.88,5.32,2.5,6.88,2.5,6.88l-5.32,1.88l-2.5-4.69
		c-1.54-0.55-3.24-0.43-4.69,0.31c-2.5,1.25-24.39,4.38-25.95,0.31c-1.56-4.07-5.94-19.07-5.94-19.07l6.57-5.32L98.23,134.93z"/>
	<path class="st5" d="M98.23,134.93l2.5,14.38c0,0,26.58-2.81,28.46,2.5c1.88,5.32,2.5,6.88,2.5,6.88l-5.32,1.88l-2.5-4.69
		c-1.54-0.55-3.24-0.43-4.69,0.31c-2.5,1.25-24.39,4.38-25.95,0.31c-1.56-4.07-5.94-19.07-5.94-19.07l6.57-5.32L98.23,134.93z"/>
	<path class="st2" d="M112.92,176.52l2.19,7.5l5.63,28.77c0,0,0.63,21.26,1.56,23.77c0.94,2.5,0.94,2.81,0,3.75
		c-0.94,0.94-2.81,4.07,0,5.94c2.81,1.88,12.82,4.07,13.13,1.88s0.31-5.63,0-7.19s0.94-25.95,0.94-25.95l-3.75-37.21l-12.82-5.94
		L112.92,176.52z"/>
	<path class="st5" d="M112.92,176.52l2.19,7.5l5.63,28.77c0,0,0.63,21.26,1.56,23.77c0.94,2.5,0.94,2.81,0,3.75
		c-0.94,0.94-2.81,4.07,0,5.94c2.81,1.88,12.82,4.07,13.13,1.88s0.31-5.63,0-7.19s0.94-25.95,0.94-25.95l-3.75-37.21l-12.82-5.94
		L112.92,176.52z"/>
	<path class="st2" d="M126.37,147.13l6.88,13.13c0,0,39.4,17.51,35.96,24.7c-3.44,7.19-22.51,20.64-22.51,20.64
		s-0.94,5.32-3.75,3.75c-2.81-1.56-9.69-9.69-9.07-10.63c0.63-0.94,2.81-3.13,3.75-2.81s11.88-8.13,11.88-8.13l-18.76-4.69
		c0,0-22.51-0.63-23.77-11.26c-1.25-10.63,0-12.51,0-12.51l-1.56-3.44l12.82-7.82L126.37,147.13z"/>
	<path class="st2" d="M136.06,199.04l-6.57,5.94c0,0-5.63-2.5-9.07-1.56c-3.44,0.94-9.38,1.56-9.38,1.56l0.94,5.32l7.98-1.47
		l-6.41,8.98c0,0,0,14.07,4.07,14.07s2.81-8.44,2.81-8.44l12.51-9.69c0,0,6.25-2.5,6.88-2.5
		C140.44,211.23,136.06,199.04,136.06,199.04z"/>
	<circle class="st7" cx="95.26" cy="101.63" r="10.63"/>
	<path class="st4" d="M84.78,109.92c0,0,5-1.25,6.57,0c1.56,1.25,1.88,4.07,4.07,4.38c2.19,0.31,4.07,0.31,4.38,0.63
		c0.31,0.31,7.5,9.07,7.5,9.07s4.38,2.5,5.32,5.94c0.94,3.44,10.32,15.01,11.57,16.26c1.25,1.25-8.13,7.5-11.26,9.69
		s-12.2,3.13-15.01-1.88S79.78,116.48,84.78,109.92z"/>
	<path class="st7" d="M96.66,130.24l2.5,14.38c0,0,26.58-2.81,28.46,2.5c1.88,5.32,2.5,6.88,2.5,6.88l-5.32,1.88l-2.5-4.69
		c-1.54-0.55-3.24-0.43-4.69,0.31c-2.5,1.25-24.39,4.38-25.95,0.31c-1.56-4.07-5.94-19.07-5.94-19.07l6.57-5.32L96.66,130.24z"/>
	<path class="st4" d="M90.69,111.23c0,0,7.54,15.88,6.91,20.26c-0.63,4.38-2.81,1.25-2.81,1.25s-2.81-4.38-4.07-1.88
		s-2.81,5.94-4.07,5.63c-1.25-0.31-8.13-23.45-4.38-25.64C86.03,108.67,90.69,111.23,90.69,111.23z"/>
	<circle class="st2" cx="74.88" cy="77.22" r="14.04"/>
	<path class="st2" d="M62.77,88.85c6.28,4.54,15.06,3.13,19.6-3.15c0.92-1.28,1.63-2.7,2.08-4.22c-0.97,7.69-7.99,13.15-15.68,12.18
		s-13.15-7.99-12.18-15.68c0.1-0.76,0.25-1.52,0.47-2.25C56.42,80.81,58.61,85.84,62.77,88.85z"/>
	<circle class="st2" cx="86.34" cy="98.05" r="10.3"/>
	<ellipse class="st2" cx="95" cy="94.19" rx="9.13" ry="7.14"/>
	<ellipse class="st7" cx="95.41" cy="102.73" rx="2.03" ry="3.6"/>
	<path class="st2" d="M123.31,155.75c0,0,5.54-3.18,6.56-2.38c1.03,0.8,1.48,3.29,1.48,3.29l-6.4,2.51l-1.88-3.44L123.31,155.75z"/>
	<line class="st8" x1="96.93" y1="264.13" x2="96.93" y2="225.92"/>
	<circle class="st1" cx="96.93" cy="225.92" r="5.4"/>
	<path class="st1" d="M96.93,249.47c0,0-0.77-16.6-16.59-14.67"/>
	<line class="st8" x1="261.48" y1="235.82" x2="261.48" y2="197.62"/>
	<circle class="st1" cx="261.48" cy="197.62" r="5.4"/>
	<path class="st1" d="M261.48,221.16c0,0-0.77-16.6-16.59-14.67"/>
	<line class="st8" x1="328.2" y1="236.7" x2="328.2" y2="160.28"/>
	<circle class="st1" cx="328.2" cy="160.28" r="5.4"/>
	<path class="st1" d="M328.2,182.29c0,0,0.77-16.6,16.59-14.67"/>
	<path class="st8" d="M328.2,235.21c0,0-3.47-30.55,16.59-32.09"/>
	<circle class="st1" cx="344.8" cy="203.12" r="5.4"/>
	<g>
		<path class="st9" d="M151.46,39.88c1,0.58,1.77,1.4,2.31,2.47c0.54,1.07,0.82,2.3,0.82,3.71V57.8h-6.88v-9.77
			c0-0.91-0.23-1.63-0.7-2.18c-0.47-0.54-1.08-0.82-1.86-0.82c-0.88,0.02-1.59,0.36-2.11,1.02c-0.52,0.66-0.78,1.52-0.78,2.59v9.16
			h-6.87v-9.77c0-0.91-0.23-1.63-0.7-2.18c-0.47-0.54-1.08-0.82-1.86-0.82c-0.88,0.02-1.59,0.36-2.13,1.02
			c-0.53,0.66-0.8,1.52-0.8,2.59v9.16h-6.87V39.29h6.87v2.82c0.64-1,1.44-1.76,2.42-2.3c0.98-0.53,2.09-0.8,3.34-0.8
			c1.43,0,2.68,0.35,3.74,1.06c1.07,0.7,1.85,1.69,2.35,2.96c0.59-1.29,1.42-2.29,2.5-2.98c1.08-0.69,2.33-1.04,3.76-1.04
			C149.31,39.01,150.46,39.3,151.46,39.88z"/>
		<path class="st9" d="M173.05,40.8c1.46,1.19,2.2,2.85,2.2,4.99V57.8h-6.74v-2.04c-0.57,0.75-1.31,1.33-2.23,1.74
			c-0.92,0.41-1.98,0.61-3.18,0.61c-1.95,0-3.48-0.53-4.59-1.58c-1.11-1.06-1.67-2.47-1.67-4.24c0-1.79,0.61-3.17,1.82-4.14
			c1.21-0.96,2.99-1.46,5.33-1.48h4.53V46.6c0-0.77-0.27-1.37-0.82-1.8c-0.54-0.43-1.34-0.65-2.38-0.65c-0.75,0-1.62,0.11-2.6,0.34
			c-0.99,0.23-1.98,0.56-2.98,0.99l-1.7-4.56c3.13-1.27,6.1-1.91,8.92-1.91C169.55,39.01,171.59,39.61,173.05,40.8z M167.28,53.1
			c0.57-0.34,0.98-0.81,1.23-1.4v-1.67h-3.13c-1.38,0-2.08,0.58-2.08,1.74c0,0.59,0.18,1.04,0.54,1.36
			c0.36,0.32,0.87,0.48,1.53,0.48C166.08,53.62,166.71,53.44,167.28,53.1z"/>
		<path class="st9" d="M191.55,56.92c-0.66,0.36-1.46,0.65-2.4,0.87c-0.94,0.22-1.89,0.32-2.84,0.32c-1.97,0-3.55-0.54-4.73-1.63
			c-1.18-1.09-1.77-2.57-1.77-4.46v-7.39h-2.55v-4.39h2.55V35.1h6.84v5.14h4.56v4.39h-4.56v6.33c0,0.59,0.14,1.03,0.41,1.33
			c0.27,0.3,0.66,0.44,1.16,0.44c0.43,0,1.13-0.18,2.11-0.54L191.55,56.92z"/>
		<path class="st9" d="M204.43,45.11c-0.51-0.32-1.08-0.48-1.72-0.48c-0.91,0-1.65,0.36-2.21,1.09c-0.57,0.73-0.85,1.68-0.85,2.86
			c0,1.2,0.28,2.17,0.83,2.91c0.56,0.74,1.3,1.11,2.23,1.11c1.38,0,2.36-0.68,2.93-2.04l5.34,2.69c-0.7,1.52-1.81,2.7-3.32,3.54
			c-1.51,0.84-3.28,1.26-5.33,1.26c-1.93,0-3.62-0.39-5.07-1.17c-1.45-0.78-2.58-1.88-3.37-3.3c-0.79-1.42-1.19-3.07-1.19-4.95
			c0-1.91,0.4-3.58,1.21-5.02c0.81-1.44,1.94-2.56,3.4-3.35c1.46-0.79,3.16-1.19,5.09-1.19c1.93,0,3.64,0.42,5.12,1.26
			c1.49,0.84,2.63,2.03,3.42,3.57l-5.28,2.59C205.35,45.88,204.94,45.42,204.43,45.11z"/>
		<path class="st9" d="M231.03,40.94c1.23,1.28,1.84,2.99,1.84,5.12V57.8h-6.88v-9.77c0-0.93-0.24-1.66-0.71-2.2
			c-0.48-0.53-1.12-0.8-1.94-0.8c-0.93,0.02-1.67,0.36-2.21,1.02c-0.54,0.66-0.82,1.52-0.82,2.59v9.16h-6.88V32.55h6.88v9.6
			c0.66-1.02,1.48-1.8,2.47-2.33c0.99-0.53,2.13-0.8,3.42-0.8C228.19,39.01,229.8,39.66,231.03,40.94z"/>
		<path class="st9" d="M241.43,52.56c0.6,0.59,0.9,1.35,0.9,2.28c0,0.95-0.3,1.73-0.9,2.33c-0.6,0.6-1.38,0.9-2.33,0.9
			c-0.93,0-1.7-0.3-2.3-0.9c-0.6-0.6-0.9-1.38-0.9-2.33c0-0.93,0.3-1.69,0.9-2.28c0.6-0.59,1.37-0.88,2.3-0.88
			C240.05,51.68,240.82,51.97,241.43,52.56z M235.96,34.01h6.53v6.19l-1.19,9.09h-4.12l-1.23-9.09V34.01z"/>
	</g>
	<g>
		<path class="st9" d="M15.03,147.62l7.41-2.24l7.33,11.47l-0.39-13.56l6.86-2.07l7.29,11.48l-0.32-13.58l7.08-2.14l-1.21,21.81
			l-7.19,2.17l-6.66-10.29l0.08,12.27l-7.19,2.17L15.03,147.62z"/>
		<path class="st9" d="M68.78,134.24c2.39,1.37,4.08,3.71,5.08,7.04c0.15,0.51,0.25,0.88,0.3,1.13l-13.22,4
			c0.57,0.85,1.27,1.43,2.08,1.74c0.82,0.31,1.69,0.32,2.63,0.03c1.52-0.46,2.77-1.52,3.77-3.19l4.92,2.57
			c-0.69,1.47-1.68,2.73-2.98,3.78c-1.3,1.05-2.86,1.85-4.69,2.4c-2.17,0.65-4.17,0.81-6.01,0.46c-1.84-0.35-3.42-1.15-4.73-2.4
			c-1.31-1.25-2.27-2.87-2.87-4.87c-0.61-2.02-0.71-3.93-0.31-5.72c0.4-1.79,1.26-3.34,2.57-4.66c1.31-1.32,2.99-2.28,5.04-2.9
			C63.59,132.67,66.4,132.87,68.78,134.24z M64.38,138.86c-0.74-0.46-1.56-0.55-2.45-0.28c-0.84,0.25-1.45,0.77-1.82,1.54
			c-0.37,0.77-0.5,1.69-0.39,2.76L65.9,141C65.63,140.03,65.12,139.32,64.38,138.86z"/>
	</g>
</g>
</svg>
